<svg id="eUcKxjANh0n1" xmlns="http://www.w3.org/2000/svg" xmlns:xlink="http://www.w3.org/1999/xlink" viewBox="0 0 690 448.7592" shape-rendering="geometricPrecision" text-rendering="geometricPrecision"><path d="M466.81292,645.7313c4.66847-10.08358,9.33339-20.31666,11.35946-31.24223s1.17569-22.78293-4.627-32.25932-17.22813-15.90241-28.13153-13.76022c-8.95532,1.75945-16.14605,8.81268-20.35651,16.90992s-5.89975,17.23014-7.53734,26.20855c-.52917-10.2001-1.0896-20.56436-4.478-30.19975s-10.06045-18.61463-19.5694-22.34313-21.87886-.79648-26.89061,8.1032c-7.06074,12.53818,2.30155,30.12541-5.81734,42.0058-1.39265-11.917-13.85471-21.33234-25.69879-19.4159s-20.70109,14.78128-18.2646,26.5294c1.44978,6.99047,6.21931,12.93631,11.92156,17.232s12.33421,9.27436,18.89475,12.09Z" transform="translate(-255-225.62)" fill="#f2f2f2"/><path d="M323.01987,598.15781c9.40825,3.28851,18.903,6.61425,27.49226,11.75558c7.698,4.60786,14.553,10.81187,18.88231,18.7569c2.372068,4.262287,3.780433,8.992965,4.12583,13.85861.06251,1.01759,1.65458,1.02469,1.59164,0-.55661-9.061-4.97238-17.353-11.087-23.91075-6.704-7.18984-15.39158-12.10041-24.3611-15.91043-5.31821-2.259-10.76859-4.17895-16.2208-6.08468-.96887-.33866-1.3854,1.19842-.42311,1.53477Z" transform="translate(-255-225.62)" fill="#fff"/><path d="M377.28745,560.62486c5.780265,9.629825,10.409041,19.90546,13.79113,30.61557c3.388824,10.706345,5.523442,21.769868,6.361,32.96846.463578,6.268832.514191,12.561373.15151,18.83685-.05905,1.02328,1.53278,1.01989,1.59163,0c.642103-11.31449-.042665-22.665251-2.04032-33.82049-1.994558-11.15392-5.272679-22.039677-9.769-32.44022-2.523864-5.841722-5.434184-11.508776-8.71162-16.9635-.229176-.362915-.704727-.478933-1.075285-.262331s-.502808.687896-.299035,1.065661Z" transform="translate(-255-225.62)" fill="#fff"/><path d="M455.188,569.76743c-8.176095,18.370152-13.929785,37.725107-17.11648,57.57847q-1.34225,8.36487-2.07791,16.81182c-.089,1.02023,1.50317,1.01426,1.59163,0c1.733117-19.809036,6.014408-39.311741,12.73788-58.02528q2.83382-7.89209,6.23921-15.56169c.412-.92791-.959-1.73862-1.37433-.80332Z" transform="translate(-255-225.62)" fill="#fff"/><rect width="9.88235" height="46.5882" rx="0" ry="0" transform="matrix(.012937 0.999916-.999916 0.012937 482.350123 431.909576)" fill="#e6e6e6"/><path d="M754.02652,669.61624l-6.65257-.0194-4.11239-7.33712l4.445-7.31237l6.1811.01792c-3.173831-4.03732-8.565105-5.607245-13.410272-3.905038s-8.069904,6.299116-8.021223,11.434365s3.359989,9.670196,8.236555,11.280242s10.237109-.061805,13.33383-4.158569Z" transform="translate(-255-225.62)" fill="#e6e6e6"/><path d="M674.20833,669.61624l6.65258-.0194l4.11239-7.33712-4.445-7.31237-6.18109.01792c3.173833-4.037311,8.565102-5.607228,13.410262-3.905018s8.06989,6.299116,8.021205,11.434359-3.35999,9.670184-8.236552,11.280226-10.237098-.061808-13.333815-4.158567Z" transform="translate(-255-225.62)" fill="#e6e6e6"/><path d="M944,646.58958h-688c-.552285,0-1-.447715-1-1s.447715-1,1-1h688c.552285,0,1,.447715,1,1s-.447715,1-1,1Z" transform="translate(-255-225.62)" fill="#3f3d56"/><circle r="33" transform="translate(540.486 197.969)" fill="#830303"/><polygon points="553.859,383.226 556.401,395.219 603.871,391.124 600.12,373.423 553.859,383.226" fill="#faccbe"/><path d="M789.18809,618.49673h38.53073v14.88687h-23.64388c-8.22178,0-14.88685-6.66507-14.88685-14.88685v0Z" transform="matrix(-.207308-.978276 0.978276-.207308 108.711 1320.97)" fill="#2f2e41"/><polygon points="524.12,382.586 518.777,393.621 473.673,378.264 481.559,361.979 524.12,382.586" fill="#faccbe"/><path d="M771.03745,617.45562h23.64388v14.88687h-38.53074v0c-.000005-3.948243,1.568425-7.734779,4.360254-10.526609s6.578363-4.360264,10.526606-4.360261Z" transform="matrix(.435788-.90005 0.90005 0.435788-379.941 824.868)" fill="#2f2e41"/><path d="M690.25925,586.41362c3.125522.581942,6.348277-.250413,8.801091-2.273096s3.88373-5.027918,3.907719-8.207064l74.37388-68.5711-18.47-14.30549-67.33743,71.94341c-5.463391.320751-9.823429,4.677116-10.148784,10.140234s3.486811,10.306178,8.873514,11.273106Z" transform="translate(-255-225.62)" fill="#faccbe"/><circle r="24.561" transform="translate(536.344 207.898)" fill="#faccbe"/><path d="M813.38612,577.89329c-17.22851.00049-37.978-3.62842-50.77856-18.477l-.28833-.33447.29663-.32813c.09668-.10693,9.51367-10.86865.11084-30.061l-12.9277,3.97746-12.8704-16.98877l7.12964-21.38916l29.17749-23.50391c4.180734-3.349017,9.270632-5.365753,14.6106-5.78906c9.66415-.934338,19.078372-3.615514,27.78467-7.91309c3.984062-1.935359,8.371583-2.894575,12.7998-2.79834l.57373.01611c2.721413.076728,5.292531,1.265196,7.114187,3.288448s2.73473,4.704556,2.526443,7.419072c-1.97852,25.62989-5.47242,87.54346,4.7915,108.86133l.26514.55078-.59229.15039c-9.755788,2.194913-19.723744,3.308077-29.72339,3.31934Z" transform="translate(-255-225.62)" fill="#6c63ff"/><path d="M765.98622,559.08958c0,0-65-6-72,13s1,28,13,32s41,9,41,9l13-16l34,2c0,0,37.88482,21.9732,48.35975,45.47377c4.578583,10.36231,14.482089,17.369462,25.77746,18.23865c8.398.58447,15.86279-2.5874,15.86279-15.7124c0-30-42-73-42-73Z" transform="translate(-255-225.62)" fill="#2f2e41"/><path d="M716.48622,588.58958c0,0,17-5,44,8" transform="translate(-255-225.62)" fill="#2f2e41"/><path d="M766.84286,417.85547c9.591849,5.855276,20.405413,9.418334,31.59919,10.4119l-3.33084-3.991c2.425245.896694,4.977251,1.40345,7.5611,1.50142c2.623354.076037,5.127447-1.096021,6.74954-3.15917c1.325976-2.144348,1.518544-4.801893.51556-7.115-1.015109-2.273075-2.595011-4.248571-4.58936-5.7385-7.180122-5.679803-16.727677-7.386128-25.43066-4.54493-2.939185.878406-5.571507,2.56695-7.59542,4.8722-2.02095,2.358848-2.720808,5.575594-1.86256,8.56086" transform="translate(-255-225.62)" fill="#870404"/><path d="M795.30911,398.22407c4.364174-10.132726,10.896437-19.18564,19.13689-26.52138c5.292-4.70276,11.47246-8.74308,18.44626-9.9627s14.83309.86982,19.11055,6.51116c3.49772,4.613,4.15213,10.79276,3.76672,16.569s-1.67632,11.49651-1.5527,17.28428c.256289,11.998228,6.562502,23.053081,16.759967,29.380391s22.90291,7.068784,33.767153,1.970609c-6.02152,3.32885-10.714,8.59777-16.3048,12.60812s-12.96272,6.7601-19.31233,4.11012c-6.71812-2.80378-9.79963-10.41937-12.20607-17.28984L846.189,402.2443c-1.82434-5.20852-3.739-10.57156-7.462-14.6454s-9.76461-6.5568-14.88927-4.50871c-3.884,1.55225-6.41275,5.25755-8.63029,8.804s-4.557,7.31984-8.30359,9.17935-9.29837.7147-10.52292-3.28471" transform="translate(-255-225.62)" fill="#870404"/><rect width="9.88235" height="46.5882" rx="0" ry="0" transform="matrix(.697899-.716196 0.716196 0.697899 532.728811 328.26889)" fill="#e6e6e6"/><path d="M821.51005,579.90944c-3.809043,3.908905-3.72809,10.165538.180814,13.974582s10.165536,3.728092,13.974582-.18081s3.728095-10.165536-.180806-13.974582-10.165537-3.728082-13.97459.18081Zm10.111,9.8527c-1.632448,1.675241-4.313859,1.709932-5.989101.077485s-1.709935-4.313857-.07749-5.989101s4.313857-1.709938,5.989101-.077494s1.70988,4.313841.07749,5.98911Z" transform="translate(-255-225.62)" fill="#e6e6e6"/><path d="M784.47962,533.54889l4.69037,4.7178-2.28023,8.096-8.3137,2.02755-4.358-4.38337c-.610583,5.099047,2.091511,10.021354,6.721197,12.243762s10.160419,1.252139,13.757161-2.413449s4.461984-9.213721,2.152205-13.800443-7.282428-7.195012-12.368983-6.48787Z" transform="translate(-255-225.62)" fill="#e6e6e6"/><path d="M803.736,577.97923c-.423738-.000215-.847145-.02369-1.26831-.07032-5.082461-.589453-9.091236-4.59863-9.68018-9.68115-.355194-3.114935.635216-6.233473,2.722581-8.57268s5.073449-3.676929,8.208569-3.67732c.490629.002566.980492.039113,1.46607.10938L838.76332,520.342l-3.50513-11.68457l17.605-7.8916l4.93384,12.06006c3.394669,8.389087.883691,18.011634-6.17724,23.67236L814.6586,565.89913c.038949.358232.058997.718268.06006,1.07861-.002198,3.128504-1.334239,6.108576-3.66382,8.19678-2.006035,1.812367-4.615362,2.812308-7.31884,2.80471Z" transform="translate(-255-225.62)" fill="#faccbe"/><path d="M829.98622,459.08958v0c2.352488-1.045558,5.029638-1.086477,7.412982-.113303s4.266713,2.876256,5.215018,5.269603l17.372,43.84371-27,18Z" transform="translate(-255-225.62)" fill="#6c63ff"/><path d="M703.48622,469.32728v-218.44458c-.019729-13.943803-11.318497-25.242571-25.2623-25.2623h-343.27006c-13.9438.019735-25.242565,11.3185-25.2623,25.2623v218.44458c.019735,13.9438,11.3185,25.242565,25.2623,25.2623h343.27006c13.943803-.019729,25.242571-11.318497,25.2623-25.2623ZM334.95386,491.61754c-12.304364-.014971-22.275289-9.985896-22.29026-22.29026v-218.44458c.014971-12.304366,9.985894-22.275294,22.29026-22.29027h343.27006c12.30437.014971,22.275299,9.9859,22.29027,22.29027v218.44458c-.014976,12.304366-9.985904,22.275289-22.29027,22.29026Z" transform="translate(-255-225.62)" fill="#3f3d56"/><path d="M700.51419,264.92368h-387.85059c-.530897,0-1.021466-.28323-1.286914-.743s-.265448-1.02623,0-1.486.756017-.743,1.286914-.743h387.85059c.820695,0,1.486.665305,1.486,1.486s-.665305,1.486-1.486,1.486Z" transform="translate(-255-225.62)" fill="#3f3d56"/><circle r="7.43009" transform="translate(82.9259 20.8043)" fill="#6c63ff"/><circle r="7.43009" transform="translate(108.188 20.8043)" fill="#6c63ff"/><circle r="7.43009" transform="translate(133.451 20.8043)" fill="#6c63ff"/><path d="M443.97867,424.85206c-.265238.000069-.519632-.105266-.707183-.292817s-.292886-.441945-.292817-.707183c0-10.42675-4.5708-16.24218-11.94531-22.24707-.278147-.225211-.414721-.581905-.358109-.93529s.297773-.649568.632352-.776622.71155-.065602.988457.161132c7.83007,6.375,12.68261,12.58008,12.68261,23.79785.000072.265238-.105262.519634-.292814.707186s-.441948.292886-.707186.292814Z" transform="translate(-255-225.62)"/><path d="M358.31656,424.85206c-.265238.000069-.519632-.105266-.707183-.292817s-.292886-.441945-.292817-.707183c0-11.21777,4.85254-17.42285,12.68262-23.79785.276907-.226734.653878-.288185.988457-.161132s.575741.423237.632352.776622-.079962.710079-.358109.93529c-7.37452,6.00489-11.94532,11.82129-11.94532,22.24707.000072.265238-.105262.519634-.292814.707186s-.441948.292886-.707186.292814Z" transform="translate(-255-225.62)"/><path d="M435.41324,356.32179c-.423151.000147-.800589-.266059-.942465-.664717s-.017472-.84346.310635-1.110673c7.58056-6.17139,8.19726-14.93848,8.19726-24.92334c0-.552285.447715-1,1-1s1,.447715,1,1c0,10.50488-.67236,19.74756-8.93457,26.47412-.17797.145597-.400921.224976-.63086.22461Z" transform="translate(-255-225.62)"/><path d="M366.88248,355.78663c-.229938.000364-.452889-.079015-.63086-.22461-8.26269-6.72705-8.93506-15.72705-8.93506-25.939c0-.552285.447715-1,1-1s1,.447715,1,1c0,10.03662.60352,18.20557,8.19776,24.38818.328109.267214.452511.712018.310633,1.110678s-.51932.664863-.942473.664712Z" transform="translate(-255-225.62)"/><path d="M456.82828,377.77247h-21.41552c-.552285,0-1-.447715-1-1s.447715-1,1-1h21.41552c.552285,0,1,.447715,1,1s-.447715,1-1,1Z" transform="translate(-255-225.62)"/><path d="M366.883,377.77247h-21.41556c-.552285,0-1-.447715-1-1s.447715-1,1-1h21.41556c.552285,0,1,.447715,1,1s-.447715,1-1,1Z" transform="translate(-255-225.62)"/><path d="M401.14762,420.56886c-.265238.000069-.519632-.105266-.707183-.292817s-.292886-.441945-.292817-.707183v-68.52978c0-.552285.447715-1,1-1s1,.447715,1,1v68.52978c.000069.265238-.105266.519632-.292817.707183s-.441945.292886-.707183.292817Z" transform="translate(-255-225.62)"/><path d="M401.14762,420.56886c-19.46704-.022374-35.242533-15.7981-35.26462-35.26514v-25.71728c0-16.46826,13.5127-26.69873,35.26465-26.69873c22.74121,0,35.26514,9.48193,35.26514,26.69873v25.71728c-.022148,19.467229-15.797941,35.243009-35.26517,35.26514Zm0-85.68115c-16.08106,0-33.26465,6.48828-33.26465,24.69873v25.71728c-.006518,11.888746,6.332309,22.877191,16.62718,28.823447s22.980558,5.946256,33.27543,0s16.633698-16.934701,16.62718-28.823447v-25.71728c0-21.48975-20.84176-24.69873-33.26514-24.69873Z" transform="translate(-255-225.62)"/><path d="M380.651,339.06154c-.409468.000031-.7776-.24952-.9292-.62989-.577539-1.4456-.911491-2.976926-.98828-4.53173.036325-12.340241,10.015362-22.343248,22.35548-22.40918h.11475c12.323364.05877,22.29926,10.033572,22.35938,22.35693-.051766,1.446452-.359935,2.872225-.91016,4.21094-.212634.506703-.794282.746902-1.302485.537877s-.752531-.788951-.547125-1.298627c.456675-1.108654.714201-2.289176.76074-3.4873-.073458-11.208505-9.154155-20.27004-20.36279-20.31982h-.10986c-11.221912.055837-20.304882,9.139891-20.35938,20.36181.070912,1.316976.357091,2.61344.84717,3.83789.122461.308022.084534.656688-.101291.931175s-.495457.439211-.826929.439925Z" transform="translate(-255-225.62)"/><path d="M502.71045,333.62308h-12c-3.865993,0-7-3.134007-7-7s3.134007-7,7-7h12c3.865993,0,7,3.134007,7,7s-3.134007,7-7,7Z" transform="translate(-255-225.62)" fill="#ccc"/><path d="M584.71045,363.12308h-12c-3.865993,0-7-3.134007-7-7s3.134007-7,7-7h12c3.865993,0,7,3.134007,7,7s-3.134007,7-7,7Z" transform="translate(-255-225.62)" fill="#ccc"/><path d="M622.71045,363.12308h-12c-3.865993,0-7-3.134007-7-7s3.134007-7,7-7h12c3.865993,0,7,3.134007,7,7s-3.134007,7-7,7Z" transform="translate(-255-225.62)" fill="#ccc"/><path d="M660.71045,363.12308h-12c-3.865993,0-7-3.134007-7-7s3.134007-7,7-7h12c3.865993,0,7,3.134007,7,7s-3.134007,7-7,7Z" transform="translate(-255-225.62)" fill="#ccc"/><path d="M585.71045,334.12308h-56c-3.865993,0-7-3.134007-7-7s3.134007-7,7-7h56c3.865993,0,7,3.134007,7,7s-3.134007,7-7,7Z" transform="translate(-255-225.62)" fill="#ccc"/><path d="M546.71045,362.12308h-56c-3.865993,0-7-3.134007-7-7s3.134007-7,7-7h56c3.865993,0,7,3.134007,7,7s-3.134007,7-7,7Z" transform="translate(-255-225.62)" fill="#ccc"/><path d="M656.71045,334.12308h-43c-3.865993,0-7-3.134007-7-7s3.134007-7,7-7h43c3.865993,0,7,3.134007,7,7s-3.134007,7-7,7Z" transform="translate(-255-225.62)" fill="#ccc"/><path d="M502.71045,392.62308h-12c-3.865993,0-7-3.134007-7-7s3.134007-7,7-7h12c3.865993,0,7,3.134007,7,7s-3.134007,7-7,7Z" transform="translate(-255-225.62)" fill="#ccc"/><path d="M585.71045,393.12308h-56c-3.865993,0-7-3.134007-7-7s3.134007-7,7-7h56c3.865993,0,7,3.134007,7,7s-3.134007,7-7,7Z" transform="translate(-255-225.62)" fill="#ccc"/><path d="M656.71045,393.12308h-43c-3.865993,0-7-3.134007-7-7s3.134007-7,7-7h43c3.865993,0,7,3.134007,7,7s-3.134007,7-7,7Z" transform="translate(-255-225.62)" fill="#ccc"/><path d="M637.71045,416.62308c.004332-3.864198,3.135802-6.995668,7-7h12c3.865993,0,7,3.134007,7,7s-3.134007,7-7,7h-12c-3.8642-.004326-6.995674-3.1358-7-7Z" transform="translate(-255-225.62)" fill="#ccc"/><path d="M554.71045,417.12308c.004332-3.864198,3.135802-6.995668,7-7h56c3.865993,0,7,3.134007,7,7s-3.134007,7-7,7h-56c-3.8642-.004326-6.995674-3.1358-7-7Z" transform="translate(-255-225.62)" fill="#ccc"/><path d="M483.71045,417.12308c.004332-3.864198,3.135802-6.995668,7-7h43c3.865993,0,7,3.134007,7,7s-3.134007,7-7,7h-43c-3.8642-.004326-6.995674-3.1358-7-7Z" transform="translate(-255-225.62)" fill="#ccc"/></svg>
