<svg id="etCnx5zSEe21" xmlns="http://www.w3.org/2000/svg" xmlns:xlink="http://www.w3.org/1999/xlink" viewBox="0 0 623.65002 623.63" shape-rendering="geometricPrecision" text-rendering="geometricPrecision"><path d="M311.82001,623.63c-7.10999,0-14.19-.23999-21.06-.70001-7.07999-.46997-14.19-1.19-21.12-2.14001-3.04999-.40997-5.81-.82001-8.44-1.25-7.81-1.27002-15.75999-2.88-23.63-4.79999-2.7-.65002-5.33-1.33002-7.83-2.03003-.88-.22998-1.78-.47998-2.67-.72998-3.8-1.07001-7.48-2.17999-10.92-3.29999-.22-.06-.48-.15002-.74001-.22998-3.10001-1-6.34-2.10999-9.62-3.29999-2.77-1-5.57001-2.06-8.56-3.23999-9.75999-3.84998-19.48-8.28003-28.89-13.15997-49.92-25.91998-91.99-64.90997-121.69-112.76001C16.14,426.76999,0,370,0,311.81C0,228.51999,32.44,150.20999,91.33,91.31999C150.22,32.43,228.53,0,311.82001,0s161.60001,32.43,220.5,91.32s91.33002,137.19999,91.33002,220.49c0,48.94-11.02002,95.79001-32.73999,139.23999-20.71997,41.44-51.04999,78.42999-87.73001,106.96002-17.48999,13.60999-36.42999,25.37-56.32001,34.92999-2.25,1.09003-4.66,2.20001-7.56,3.51001l-.32001.14001c-.35001.15997-.69.31-1.04001.46002-2.17999.96997-4.39999,1.91998-6.59,2.82001l-.98999.41998c-.59.25-1.17999.48999-1.78.71997-8.04001,3.25-16.29001,6.20001-24.54001,8.72998-6.12,1.90002-12.53,3.65997-19.06,5.22998-23.79001,5.73999-48.41,8.65002-73.16,8.65002v0v.01001Zm0-621.59998c-82.76001,0-160.56,32.22-219.07001,90.74C34.23,151.25,2,229.05,2,311.81c0,57.82001,16.04,114.22,46.37,163.10999c29.5,47.53998,71.30999,86.28998,120.91,112.03998c9.35001,4.84998,19.00999,9.25,28.70999,13.08002c2.97,1.17999,5.75,2.22998,8.5,3.21997c3.27,1.17999,6.48,2.28003,9.57001,3.28003.24001.08002.47.15002.7.21997c3.44,1.12,7.09,2.21997,10.87,3.28998.88.25,1.75999.5,2.64.72998c2.49001.69,5.10001,1.37,7.78,2.02002c7.82001,1.90997,15.71001,3.51001,23.48001,4.77002c2.60999.42999,5.35001.84003,8.38,1.25c6.88.94,13.94,1.65997,20.98001,2.12c6.82001.46002,13.85999.70001,20.92001.70001c24.59,0,49.04999-2.89001,72.69998-8.59003c6.48999-1.56,12.85999-3.31,18.94-5.19c8.19-2.52002,16.39999-5.44,24.39001-8.67999.60001-.22998,1.17001-.46997,1.73999-.71002l1.17999-.5c2.10999-.87,4.25-1.78998,6.37-2.72998.35999-.15002.69-.29999,1.01999-.45001l.32001-.14001c2.88-1.29999,5.26999-2.40997,7.51001-3.48999c19.76001-9.5,38.59-21.17999,55.95999-34.71002c36.44-28.35999,66.58002-65.10999,87.16998-106.28c21.58002-43.17001,32.53003-89.72,32.53003-138.35001c0-82.76001-32.22998-160.56-90.75-219.07001C472.39001,34.22,394.57999,2,311.82001,2v0v.03003Z" fill="#dddedf"/><path d="M283.5,177.84c0,0-54.77,6.17999-58.3,90.98999-2.94,70.67001-8.96001,110.06,19.78999,124.80002c10.28,5.26999,22.35999,5.73001,33.34,2.13l117.37-38.59c0,0,1.76999-127.20999-38.87-158.13s-73.32001-21.2-73.32001-21.2v0l-.00998-.00002Z" fill="#7e0303"/><polygon points="348.20001,372.79001 288.79999,392.32001 288.79999,306.82001 342.69,306.82001 348.20001,372.79001" fill="#faccbe"/><path d="M428.22,600.09003c-8,3.23999-16.16,6.15002-24.47,8.71002-6.25,1.94-12.59,3.66998-19,5.21002-23.39001,5.64001-47.82001,8.62-72.92999,8.62-7.06,0-14.06-.22998-20.98999-.70001-7.09-.46997-14.10999-1.17999-21.04999-2.13-2.82001-.38-5.62-.78998-8.41-1.25-7.95-1.28998-15.81-2.90002-23.55-4.78998-2.61-.63-5.21001-1.29999-7.8-2.02002-.89-.22998-1.78-.47998-2.66-.72998-3.64999-1.03003-7.28-2.12-10.88-3.28998-.24001-.07001-.49001-.15002-.73-.22998-3.22-1.03998-6.42-2.14001-9.60001-3.28998-2.86-1.03003-5.7-2.10999-8.53-3.22998l61.71001-203.10999l2.57001-8.45001l9.12-30.01001.07001-.23999.07001-.22h107.76999l.72,3.51001l17.67001,86.44l12.73001,62.29999l12.51999,61.23001l5.14999,25.20001.5,2.46997v0l-.00003-.00012Z" fill="#989898"/><path d="M288.16,358.98999l-7.25,30.03-1.01001,4.20999-.53,2.19-32.16,133.31-19.85001,82.28003c-3.64999-1.03003-7.28-2.12-10.88-3.28998-.24001-.07001-.49001-.15002-.73-.22998-3.22-1.03998-6.42-2.14001-9.60001-3.28998-2.86-1.03003-5.7-2.10999-8.53-3.22998-9.86-3.89001-19.47-8.28003-28.8-13.12c20.83-103.10001,41.74001-204.47,45.14-212.96002c1.49001-3.73001,5.66-6.59,11.31-8.79001c1.63-.64001,3.39-1.22,5.24001-1.75c12.13-3.45999,28.32001-4.73001,40.45999-5.17999h.12c4.84-.17001,9.03-.22,12.04999-.22s5.01999.04999,5.01999.04999v0l.00006-.01007Z" fill="#989898"/><circle r="59.19" transform="translate(297.164527 271.3)" fill="#faccbe"/><path d="M279.97,199.92999c0,0-32.57001,132.25,3.64999,194.09l-51.02-10.84c0,0-19.77-144.75999,19.99001-171.07001l27.38998-12.17999h-.00998Z" fill="#870404"/><path d="M269.78,619.79999c-2.82001-.38-5.62-.78998-8.41-1.25-7.95-1.28998-15.81-2.90002-23.55-4.78998-2.61-.63-5.21001-1.29999-7.8-2.02002l3.33-25.53998l8.89-68.22998l4,14.78003l3.67999,13.60999l19.85999,73.44v0l.00003-.00006Z" opacity="0.1" fill="#272223"/><path d="M437.54999,596.14001c-2.17999.96997-4.37,1.90997-6.57999,2.82001v0c-.32999.14001-.66.28003-.98999.41998-.57999.23999-1.16.47998-1.75.71002-8,3.23999-16.16,6.15002-24.47,8.71002v0C384.02002,594.83007,368.81,575.37005,360.03,552.83007l-4.67999-12.01001-29.98001-86.84l66.41998,69.68997L403.92999,542.89l18.64999,29.52002l14.98001,23.71997h-.01001v.01001Z" opacity="0.1" fill="#272223"/><path d="M502.57001,557.22998c-17.34,13.5-36.14001,25.20001-56.14001,34.82001-2.48999,1.20001-5.01001,2.35999-7.54001,3.5-.45001.20001-.89001.40002-1.34.59003-2.17999.96997-4.37,1.90997-6.57999,2.82001v0c-1.09-.41998-2.17001-.87-3.23999-1.34003-10.97-4.79999-20.76999-12.09998-29.42001-20.63-11.62-11.48999-21.14001-25.22998-28.60999-38.21002-3.67999-6.39001-6.85999-12.59998-9.54999-18.26001l-.04001-.09003c-7.25-15.32999-10.84-26.60999-10.84-26.60999l-9.64999-39.63-2.64999-10.87v0l-15.07999-61.88-5.48001-22.5l8.17999-.35999l22.35001-.98001l24.64999-1.09c5.67999.42999,11.22,1.48999,16.54999,3.14999c17.10999,5.25,31.98999,16.47,41.76001,31.91c26.85999,42.47,69.87,117.38,72.67999,165.66003h-.01001Z" fill="#989898"/><path d="M221.73,331.37c12.97-4.67001,47.3-4.69,62.7.51001c2.98999,1.01001,4.79999,4.04999,4.28,7.16l-.60999,3.69c1.34-.20001,2.64999-.57999,3.89001-1.14999c3.67001-1.67999,10.89999-3.95999,18.20001-.32001c5.10001,2.54001,8.69,7.32999,9.95001,12.89999c3.01001,13.32001-4.57999,20.69-4.57999,20.69l-10.10999,9.48999c-8.47,7.94-17.70999,15.01999-27.57999,21.12l-.20001.12l3.60001-21.66c2.03,3.57001,6.62,4.73999,10.10999,2.57999c8.82001-5.45999,23.23001-16.39999,21.48001-28.82001-1.22-8.66-6.03-10.5-10.64999-10.10999-5.17001.44-9.67999,3.69-11.89001,8.38-.53,1.12-1.39999,2.04001-2.48001,2.64001L285.24005,360.01l-7.62,45.91c-.34,2.06-1.66,3.84-3.53,4.76001-17.92001,8.79001-37.25999,4.23001-43.95,2.17999-1.53-.47-2.84-1.48001-3.66-2.85999l-1.44-2.39001c-.5-.82001-.8-1.75-.89999-2.70001l-6.64999-66.82001c-.28999-2.95001,1.46001-5.70999,4.25-6.72h-.01007Z" fill="#6c63ff"/><path d="M282.89999,334.92001c0,1.57001-13.48999,2.84-30.13,2.84s-30.13-1.26999-30.13-2.84s13.49001-2.84,30.13-2.84s30.13,1.26999,30.13,2.84Z" fill="#8f5f3c"/><path d="M297.47,397.64001c-11.34-16.29999-11.75-35.47-.92001-42.83002s28.79001-.12,40.13,16.19c4.62,6.45001,7.56,13.92999,8.57999,21.82001l47.12,69.66998-34.57999,21.89999-42.78-71c-7.09-3.76001-13.10999-9.16-17.54999-15.73999v0-.00998Z" fill="#faccbe"/><polygon points="325.35999,453.98999 364.29999,418.14999 441.29001,489.84 369.69,538.78003 325.35999,453.98999" fill="#939393"/><polygon points="434.48999,499.78 437.54999,523.28998 417.14999,499.78 417.14999,476.07001 434.48999,499.78" opacity="0.1" fill="#272223"/></svg>
